<svg xmlns="http://www.w3.org/2000/svg" version="1.1" xmlns:xlink="http://www.w3.org/1999/xlink" xmlns:svgjs="http://svgjs.dev/svgjs" width="2000" height="676" viewBox="0 0 2000 676"><g transform="matrix(1,0,0,1,-1.2121212121212466,0.12205731183200896)"><svg viewBox="0 0 396 134" data-background-color="#f9f9f9" preserveAspectRatio="xMidYMid meet" height="676" width="2000" xmlns="http://www.w3.org/2000/svg" xmlns:xlink="http://www.w3.org/1999/xlink"><g id="tight-bounds" transform="matrix(1,0,0,1,0.2400000000000091,-0.02419479258207957)"><svg viewBox="0 0 395.52 134.04826049830004" height="134.04826049830004" width="395.52"><g><svg viewBox="0 0 668.2671721549299 226.48678189595054" height="134.04826049830004" width="395.52"><g transform="matrix(1,0,0,1,272.7471721549299,64.25451632817129)"><svg viewBox="0 0 395.52 97.97774923960797" height="97.97774923960797" width="395.52"><g id="textblocktransform"><svg viewBox="0 0 395.52 97.97774923960797" height="97.97774923960797" width="395.52" id="textblock"><g><svg viewBox="0 0 395.52 97.97774923960797" height="97.97774923960797" width="395.52"><g transform="matrix(1,0,0,1,0,0)"><svg width="395.52" viewBox="2.65 -35.75 147.94 36.65" height="97.97774923960797" data-palette-color="#030303"><g class="wordmark-text-0" data-fill-palette-color="primary" id="text-0"><path d="M28.25-34.95L28.25-30.85 17.8-30.85 17.8 0 13.15 0 13.15-30.85 2.65-30.85 2.65-34.95 28.25-34.95ZM40.5-12.95L40.5 0 35.85 0 35.85-34.95 40.5-34.95 40.5-19.05 54.55-34.95 60.3-34.95 47.6-20.7 61.3 0 55.75 0 44.45-17.3 40.5-12.95ZM91.2 0L86.34 0 83.25-10.45 71.2-10.45 68.09 0 63.3 0 74.34-34.95 80.2-34.95 91.2 0ZM77.2-30.75L72.34-14.35 82.09-14.35 77.2-30.75ZM121.44-25.2L121.44-25.2 116.69-25.2Q115.94-28.05 114.34-29.85 112.74-31.65 109.39-31.65L109.39-31.65Q106.09-31.65 104.07-29.85 102.04-28.05 101.14-24.83 100.24-21.6 100.24-17.4L100.24-17.4Q100.24-10.3 102.59-6.75 104.94-3.2 109.39-3.2L109.39-3.2Q112.89-3.2 114.59-5.4 116.29-7.6 117.04-11.85L117.04-11.85 121.79-11.85Q121.09-5.5 117.79-2.3 114.49 0.9 109.34 0.9L109.34 0.9Q104.79 0.9 101.69-1.33 98.59-3.55 96.99-7.65 95.39-11.75 95.39-17.35L95.39-17.35Q95.39-21.1 96.17-24.45 96.94-27.8 98.59-30.33 100.24-32.85 102.94-34.3 105.64-35.75 109.54-35.75L109.54-35.75Q113.04-35.75 115.49-34.35 117.94-32.95 119.44-30.58 120.94-28.2 121.44-25.2ZM150.59 0L145.94 0 145.94-15.85 132.19-15.85 132.19 0 127.54 0 127.54-34.95 132.19-34.95 132.19-19.95 145.94-19.95 145.94-34.95 150.59-34.95 150.59 0Z" fill="#ffffff" data-fill-palette-color="primary"></path></g></svg></g></svg></g></svg></g></svg></g><g><svg viewBox="0 0 226.48678189595054 226.48678189595054" height="226.48678189595054" width="226.48678189595054"><g><svg></svg></g><g id="icon-0"><svg viewBox="0 0 226.48678189595054 226.48678189595054" height="226.48678189595054" width="226.48678189595054"><g><path d="M0 113.243c0-62.543 50.701-113.243 113.243-113.243 62.543 0 113.243 50.701 113.244 113.243 0 62.543-50.701 113.243-113.244 113.244-62.543 0-113.243-50.701-113.243-113.244zM113.243 217.651c57.663 0 104.408-46.745 104.408-104.408 0-57.663-46.745-104.408-104.408-104.407-57.663 0-104.408 46.745-104.407 104.407 0 57.663 46.745 104.408 104.407 104.408z" data-fill-palette-color="accent" fill="#ffffff" stroke="transparent"></path></g><g transform="matrix(1,0,0,1,48.484876767579905,80.20755592018246)"><svg viewBox="0 0 129.51702836079073 66.07167005558563" height="66.07167005558563" width="129.51702836079073"><g><svg version="1.0" xmlns="http://www.w3.org/2000/svg" xmlns:xlink="http://www.w3.org/1999/xlink" x="0" y="0" viewBox="0 0 100 51.013886661707716" enable-background="new 0 0 100 51.086" xml:space="preserve" width="129.51702836079073" height="66.07167005558563" class="icon-cg-0" data-fill-palette-color="accent" id="cg-0"><circle cx="13.955" cy="42.837" r="8.2" fill="#ffffff" data-fill-palette-color="accent"></circle><circle cx="76.521" cy="42.837" r="8.2" fill="#ffffff" data-fill-palette-color="accent"></circle><rect x="32.363" width="67.637" height="32.322" fill="#ffffff" data-fill-palette-color="accent"></rect><path d="M70.126 34.587H28.073V7.999L6.438 9.646c0 0-4.745 11.746-6.438 15.884v11.202 4.021c0 1.151 0.933 2.084 2.083 2.084h1.432c0-5.767 4.675-10.44 10.44-10.44 5.767 0 10.44 4.674 10.44 10.44h41.686C66.081 39.48 67.666 36.497 70.126 34.587zM19.733 23.681L3.08 25.775l4.81-12.491 11.844-0.903V23.681z" fill="#ffffff" data-fill-palette-color="accent"></path><path d="M99.944 34.587H82.917c2.46 1.91 4.045 4.894 4.045 8.25h2.437 4.322l6.244-2.211L99.944 34.587z" fill="#ffffff" data-fill-palette-color="accent"></path></svg></g></svg></g></svg></g></svg></g></svg></g><defs></defs></svg><rect width="395.52" height="134.04826049830004" fill="none" stroke="none" visibility="hidden"></rect></g></svg></g></svg>